SplineFontDB: 3.2
FontName: jetbrains-product-icon-theme
FullName: jetbrains-product-icon theme
FamilyName: jetbrains-product-icon-theme
Weight: Regular
Copyright: Copyright (c) 2025, nickitonov
UComments: "2025-5-21: Created with FontForge (http://fontforge.org)"
Version: 001.000
ItalicAngle: 0
UnderlinePosition: -100
UnderlineWidth: 50
Ascent: 800
Descent: 200
InvalidEm: 0
LayerCount: 2
Layer: 0 0 "+BBcEMAQ0BD0EOAQ5 +BD8EOwQwBD0A" 1
Layer: 1 0 "+BB8ENQRABDUENAQ9BDgEOQAA +BD8EOwQwBD0A" 0
XUID: [1021 521 1920608346 13689]
StyleMap: 0x0000
FSType: 0
OS2Version: 0
OS2_WeightWidthSlopeOnly: 0
OS2_UseTypoMetrics: 1
CreationTime: 1747859414
ModificationTime: 1748553639
OS2TypoAscent: 0
OS2TypoAOffset: 1
OS2TypoDescent: 0
OS2TypoDOffset: 1
OS2TypoLinegap: 90
OS2WinAscent: 0
OS2WinAOffset: 1
OS2WinDescent: 0
OS2WinDOffset: 1
HheadAscent: 0
HheadAOffset: 1
HheadDescent: 0
HheadDOffset: 1
MarkAttachClasses: 1
DEI: 91125
Encoding: ISO8859-1
UnicodeInterp: none
NameList: AGL For New Fonts
DisplaySize: -48
AntiAlias: 1
FitToEm: 0
WinInfo: 0 16 6
BeginPrivate: 0
EndPrivate
BeginChars: 256 25

StartChar: explorer_view_icon
Encoding: 1 1 0
Width: 1000
Flags: H
LayerCount: 2
Fore
SplineSet
382.606445312 612.5 m 1
 164.583007812 612.5 l 2
 150.30078125 612.5 125 596.349609375 125 558.333007812 c 2
 125 41.6689453125 l 2
 125 3.650390625 150.30078125 -12.5 164.583007812 -12.5 c 2
 500 -12.5 l 1
 500 -75 l 1
 164.583007812 -75 l 2
 108.204101562 -75 62.5 -22.7685546875 62.5 41.6689453125 c 2
 62.5 558.333007812 l 2
 62.5 622.766601562 108.204101562 675 164.583007812 675 c 2
 382.606445312 675 l 2
 399.6328125 675 415.922851562 668.052734375 427.709960938 655.765625 c 2
 529.166992188 550 l 1
 812.5 550 l 2
 881.537109375 550 937.5 494.03515625 937.5 425 c 2
 937.5 300 l 1
 875 300 l 1
 875 425 l 2
 875 459.518554688 847.018554688 487.5 812.5 487.5 c 2
 502.513671875 487.5 l 1
 382.606445312 612.5 l 1
718.75 -12.369140625 m 2
 781.25 -12.369140625 l 2
 798.505859375 -12.369140625 812.5 -26.3623046875 812.5 -43.619140625 c 0
 812.5 -60.880859375 798.505859375 -74.869140625 781.25 -74.869140625 c 2
 718.75 -74.869140625 l 2
 701.494140625 -74.869140625 687.5 -60.880859375 687.5 -43.619140625 c 0
 687.5 -26.3623046875 701.494140625 -12.369140625 718.75 -12.369140625 c 2
875 237.629882812 m 2
 944.037109375 237.629882812 1000 181.665039062 1000 112.630859375 c 2
 1000 -74.869140625 l 2
 1000 -143.90625 944.037109375 -199.869140625 875 -199.869140625 c 2
 687.5 -199.869140625 l 2
 618.46484375 -199.869140625 562.5 -143.90625 562.5 -74.869140625 c 2
 562.5 112.630859375 l 2
 562.5 181.665039062 618.46484375 237.629882812 687.5 237.629882812 c 2
 875 237.629882812 l 2
625 112.630859375 m 2
 625 -74.869140625 l 2
 625 -109.387695312 652.981445312 -137.369140625 687.5 -137.369140625 c 2
 875 -137.369140625 l 2
 909.518554688 -137.369140625 937.5 -109.387695312 937.5 -74.869140625 c 2
 937.5 112.630859375 l 2
 937.5 147.150390625 909.518554688 175.129882812 875 175.129882812 c 2
 687.5 175.129882812 l 2
 652.981445312 175.129882812 625 147.150390625 625 112.630859375 c 2
EndSplineSet
Validated: 1
EndChar

StartChar: extensions
Encoding: 2 2 1
Width: 1000
Flags: H
LayerCount: 2
Fore
SplineSet
593.75 581.25 m 1
 593.75 550 l 1
 576.491210938 550 562.5 563.991210938 562.5 581.25 c 1
 593.75 581.25 l 1
781.25 581.25 m 1
 781.25 612.5 l 1
 798.505859375 612.5 812.5 598.508789062 812.5 581.25 c 1
 781.25 581.25 l 1
781.25 393.75 m 1
 781.25 362.5 l 1
 763.994140625 362.5 750 376.491210938 750 393.75 c 1
 781.25 393.75 l 1
781.25 143.75 m 1
 750 143.75 l 1
 750 161.005859375 763.994140625 175 781.25 175 c 1
 781.25 143.75 l 1
781.25 -43.75 m 1
 812.5 -43.75 l 1
 812.5 -61.005859375 798.505859375 -75 781.25 -75 c 1
 781.25 -43.75 l 1
156.25 -43.75 m 1
 156.25 -75 l 1
 138.991210938 -75 125 -61.005859375 125 -43.75 c 1
 156.25 -43.75 l 1
343.75 581.25 m 1
 375 581.25 l 1
 375 563.991210938 361.008789062 550 343.75 550 c 1
 343.75 581.25 l 1
156.25 581.25 m 1
 125 581.25 l 1
 125 598.508789062 138.991210938 612.5 156.25 612.5 c 1
 156.25 581.25 l 1
156.25 393.75 m 1
 156.25 362.5 l 1
 138.991210938 362.5 125 376.491210938 125 393.75 c 1
 156.25 393.75 l 1
156.25 143.75 m 1
 125 143.75 l 1
 125 161.005859375 138.991210938 175 156.25 175 c 1
 156.25 143.75 l 1
468.75 800 m 1
 468.75 737.5 l 1
 416.97265625 737.5 375 695.52734375 375 643.75 c 1
 312.5 643.75 l 1
 312.5 730.043945312 382.456054688 800 468.75 800 c 1
625 643.75 m 1
 562.5 643.75 l 1
 562.5 695.52734375 520.52734375 737.5 468.75 737.5 c 1
 468.75 800 l 1
 555.043945312 800 625 730.043945312 625 643.75 c 1
625 581.25 m 1
 562.5 581.25 l 1
 562.5 643.75 l 1
 625 643.75 l 1
 625 581.25 l 1
781.25 612.5 m 1
 593.75 612.5 l 1
 593.75 550 l 1
 781.25 550 l 1
 781.25 612.5 l 1
812.5 393.75 m 1
 750 393.75 l 1
 750 581.25 l 1
 812.5 581.25 l 1
 812.5 393.75 l 1
781.25 362.5 m 1
 843.75 362.5 l 1
 843.75 425 l 1
 781.25 425 l 1
 781.25 362.5 l 1
843.75 362.5 m 1
 843.75 425 l 1
 930.043945312 425 1000 355.043945312 1000 268.75 c 1
 937.5 268.75 l 1
 937.5 320.52734375 895.525390625 362.5 843.75 362.5 c 1
937.5 268.75 m 1
 1000 268.75 l 1
 1000 182.456054688 930.043945312 112.5 843.75 112.5 c 1
 843.75 175 l 1
 895.525390625 175 937.5 216.97265625 937.5 268.75 c 1
843.75 175 m 1
 781.25 175 l 1
 781.25 112.5 l 1
 843.75 112.5 l 1
 843.75 175 l 1
812.5 -43.75 m 1
 750 -43.75 l 1
 750 143.75 l 1
 812.5 143.75 l 1
 812.5 -43.75 l 1
156.25 -75 m 1
 781.25 -75 l 1
 781.25 -12.5 l 1
 156.25 -12.5 l 1
 156.25 -75 l 1
343.75 612.5 m 1
 156.25 612.5 l 1
 156.25 550 l 1
 343.75 550 l 1
 343.75 612.5 l 1
312.5 643.75 m 1
 375 643.75 l 1
 375 581.25 l 1
 312.5 581.25 l 1
 312.5 643.75 l 1
125 581.25 m 1
 187.5 581.25 l 1
 187.5 393.75 l 1
 125 393.75 l 1
 125 581.25 l 1
125 143.75 m 1
 187.5 143.75 l 1
 187.5 -43.75 l 1
 125 -43.75 l 1
 125 143.75 l 1
156.25 362.5 m 1
 218.75 362.5 l 1
 218.75 425 l 1
 156.25 425 l 1
 156.25 362.5 l 1
218.75 175 m 1
 156.25 175 l 1
 156.25 112.5 l 1
 218.75 112.5 l 1
 218.75 175 l 1
312.5 268.75 m 1
 375 268.75 l 1
 375 182.456054688 305.043945312 112.5 218.75 112.5 c 1
 218.75 175 l 1
 270.52734375 175 312.5 216.97265625 312.5 268.75 c 1
218.75 362.5 m 1
 218.75 425 l 1
 305.043945312 425 375 355.043945312 375 268.75 c 1
 312.5 268.75 l 1
 312.5 320.52734375 270.52734375 362.5 218.75 362.5 c 1
EndSplineSet
Validated: 5
EndChar

StartChar: files
Encoding: 3 3 2
Width: 1000
Flags: H
LayerCount: 2
Fore
SplineSet
187.5 112.5 m 2
 187.5 435.72265625 l 2
 187.5 468.875976562 200.668945312 500.668945312 224.112304688 524.112304688 c 2
 400.887695312 700.887695312 l 2
 424.331054688 724.331054688 456.124023438 737.5 489.27734375 737.5 c 2
 625 737.5 l 2
 694.037109375 737.5 750 681.53515625 750 612.5 c 2
 750 112.5 l 2
 750 43.462890625 694.037109375 -12.5 625 -12.5 c 2
 312.5 -12.5 l 2
 243.46484375 -12.5 187.5 43.462890625 187.5 112.5 c 2
250 425 m 1
 250 112.5 l 2
 250 77.9814453125 277.982421875 50 312.5 50 c 2
 625 50 l 2
 659.518554688 50 687.5 77.9814453125 687.5 112.5 c 2
 687.5 612.5 l 2
 687.5 647.017578125 659.518554688 675 625 675 c 2
 500 675 l 1
 500 518.75 l 2
 500 466.97265625 458.02734375 425 406.25 425 c 2
 250 425 l 1
275.887695312 487.5 m 1
 406.25 487.5 l 2
 423.508789062 487.5 437.5 501.491210938 437.5 518.75 c 2
 437.5 649.112304688 l 1
 275.887695312 487.5 l 1
875 581.25 m 2
 875 -12.5 l 2
 875 -81.537109375 819.037109375 -137.5 750 -137.5 c 2
 343.75 -137.5 l 2
 326.491210938 -137.5 312.5 -123.505859375 312.5 -106.25 c 0
 312.5 -88.994140625 326.491210938 -75 343.75 -75 c 2
 750 -75 l 2
 784.518554688 -75 812.5 -47.0185546875 812.5 -12.5 c 2
 812.5 581.25 l 2
 812.5 598.508789062 826.494140625 612.5 843.75 612.5 c 0
 861.005859375 612.5 875 598.508789062 875 581.25 c 2
EndSplineSet
Validated: 1
EndChar

StartChar: search
Encoding: 4 4 3
Width: 1000
Flags: H
LayerCount: 2
Fore
SplineSet
437.5 675 m 0
 609.71875 675 750 534.71875 750 362.5 c 0
 750 190.28125 609.71875 50 437.5 50 c 0
 265.28125 50 125 190.28125 125 362.5 c 0
 125 534.71875 265.28125 675 437.5 675 c 0
437.5 612.5 m 0
 299.05859375 612.5 187.5 500.94140625 187.5 362.5 c 0
 187.5 224.05859375 299.05859375 112.5 437.5 112.5 c 0
 575.94140625 112.5 687.5 224.05859375 687.5 362.5 c 0
 687.5 500.94140625 575.94140625 612.5 437.5 612.5 c 0
659.545898438 184.643554688 m 2
 659.545898438 184.643554688 865.71875 -21.419921875 865.719726562 -21.4111328125 c 1
 871.412109375 -27.072265625 874.936523438 -34.9189453125 874.936523438 -43.5732421875 c 0
 874.936523438 -52.1630859375 871.462890625 -59.94921875 865.844726562 -65.6005859375 c 0
 860.188476562 -71.255859375 852.368164062 -74.7548828125 843.74609375 -74.7548828125 c 0
 835.123046875 -74.7548828125 827.311523438 -71.255859375 821.655273438 -65.6005859375 c 2
 821.655273438 -65.6005859375 615.356445312 140.340820312 615.356445312 140.33203125 c 1
 609.701171875 145.98828125 606.201171875 153.80859375 606.201171875 162.431640625 c 0
 606.201171875 171.053710938 609.701171875 178.865234375 615.356445312 184.521484375 c 0
 621.017578125 190.212890625 628.86328125 193.737304688 637.516601562 193.737304688 c 0
 646.108398438 193.737304688 653.89453125 190.262695312 659.545898438 184.643554688 c 2
EndSplineSet
Validated: 5
EndChar

StartChar: settings_gear
Encoding: 5 5 4
Width: 1000
Flags: H
LayerCount: 2
Fore
SplineSet
201.659179688 526.899414062 m 2
 182.645507812 501.922851562 166.708984375 474.51171875 154.3984375 445.233398438 c 2
 206.870117188 356.606445312 l 2
 227.537109375 321.698242188 227.537109375 278.30078125 206.870117188 243.393554688 c 2
 154.3984375 154.768554688 l 2
 166.709960938 125.487304688 182.645507812 98.0751953125 201.66015625 73.099609375 c 2
 304.538085938 74.224609375 l 2
 345.103515625 74.6689453125 382.685546875 52.974609375 402.583007812 17.619140625 c 2
 453.061523438 -72.0625 l 2
 468.49609375 -74 484.245117188 -75 500.254882812 -75 c 0
 516.262695312 -75 532.008789062 -74 547.440429688 -72.068359375 c 2
 597.918945312 17.619140625 l 2
 617.81640625 52.974609375 655.400390625 74.6689453125 695.962890625 74.224609375 c 2
 798.849609375 73.099609375 l 2
 817.862304688 98.0751953125 833.799804688 125.481445312 846.106445312 154.755859375 c 2
 793.630859375 243.393554688 l 2
 772.962890625 278.30078125 772.962890625 321.698242188 793.630859375 356.606445312 c 2
 846.106445312 445.2421875 l 2
 833.799804688 474.516601562 817.862304688 501.924804688 798.849609375 526.899414062 c 2
 695.962890625 525.772460938 l 2
 655.400390625 525.328125 617.81640625 547.026367188 597.918945312 582.37890625 c 2
 547.440429688 672.06640625 l 2
 532.008789062 674.000976562 516.262695312 675 500.254882812 675 c 0
 484.245117188 675 468.49609375 674 453.061523438 672.065429688 c 2
 402.583007812 582.37890625 l 2
 382.685546875 547.026367188 345.103515625 525.328125 304.538085938 525.772460938 c 2
 201.659179688 526.899414062 l 2
665.9375 299.999023438 m 0
 665.9375 208.4921875 591.756835938 134.3125 500.25 134.3125 c 0
 408.744140625 134.3125 334.5625 208.4921875 334.5625 299.999023438 c 0
 334.5625 391.505859375 408.744140625 465.686523438 500.25 465.686523438 c 0
 591.756835938 465.686523438 665.9375 391.505859375 665.9375 299.999023438 c 0
305.22265625 588.268554688 m 2
 322.969726562 588.07421875 339.412109375 597.567382812 348.1171875 613.034179688 c 2
 402.385742188 709.453125 l 2
 409.321289062 721.775390625 421.255859375 730.619140625 435.2421875 732.702148438 c 0
 456.454101562 735.862304688 478.1640625 737.5 500.254882812 737.5 c 0
 522.34375 737.5 544.049804688 735.86328125 565.258789062 732.704101562 c 0
 579.245117188 730.62109375 591.180664062 721.77734375 598.116210938 709.454101562 c 2
 652.387695312 613.034179688 l 2
 661.087890625 597.567382812 677.53125 588.07421875 695.28125 588.268554688 c 2
 805.862304688 589.48046875 l 2
 819.974609375 589.634765625 833.575195312 583.7421875 842.380859375 572.711914062 c 0
 869.369140625 538.896484375 891.450195312 500.990234375 907.543945312 460.072265625 c 0
 912.712890625 446.931640625 911.018554688 432.194335938 903.825195312 420.04296875 c 2
 847.412109375 324.764648438 l 2
 838.369140625 309.493164062 838.369140625 290.506835938 847.412109375 275.234375 c 2
 903.825195312 179.95703125 l 2
 911.018554688 167.806640625 912.712890625 153.068359375 907.543945312 139.924804688 c 0
 891.450195312 99.0126953125 869.369140625 61.1064453125 842.380859375 27.287109375 c 0
 833.575195312 16.255859375 819.974609375 10.3623046875 805.862304688 10.5185546875 c 2
 695.28125 11.7314453125 l 2
 677.53125 11.9248046875 661.087890625 2.431640625 652.387695312 -13.03125 c 2
 598.116210938 -109.456054688 l 2
 591.180664062 -121.775390625 579.245117188 -130.619140625 565.258789062 -132.706054688 c 0
 544.049804688 -135.862304688 522.34375 -137.5 500.254882812 -137.5 c 0
 478.1640625 -137.5 456.454101562 -135.862304688 435.2421875 -132.700195312 c 0
 421.255859375 -130.619140625 409.321289062 -121.775390625 402.385742188 -109.450195312 c 2
 348.1171875 -13.03125 l 2
 339.412109375 2.431640625 322.969726562 11.9248046875 305.22265625 11.7314453125 c 2
 194.650390625 10.5185546875 l 2
 180.537109375 10.3623046875 166.934570312 16.255859375 158.130859375 27.287109375 c 0
 131.138671875 61.1064453125 109.055664062 99.0126953125 92.9609375 139.9375 c 0
 87.79296875 153.075195312 89.490234375 167.8125 96.6845703125 179.96484375 c 2
 153.088867188 275.234375 l 2
 162.130859375 290.506835938 162.130859375 309.493164062 153.088867188 324.764648438 c 2
 96.6845703125 420.03515625 l 2
 89.490234375 432.186523438 87.79296875 446.922851562 92.9609375 460.063476562 c 0
 109.055664062 500.984375 131.138671875 538.893554688 158.130859375 572.711914062 c 0
 166.934570312 583.7421875 180.537109375 589.634765625 194.650390625 589.48046875 c 2
 305.22265625 588.268554688 l 2
603.4375 299.999023438 m 0
 603.4375 356.98828125 557.23828125 403.186523438 500.25 403.186523438 c 0
 443.26171875 403.186523438 397.0625 356.98828125 397.0625 299.999023438 c 0
 397.0625 243.010742188 443.26171875 196.811523438 500.25 196.811523438 c 0
 557.23828125 196.811523438 603.4375 243.010742188 603.4375 299.999023438 c 0
EndSplineSet
Validated: 33
EndChar

StartChar: terminal
Encoding: 6 6 5
Width: 1000
Flags: H
LayerCount: 2
Fore
SplineSet
187.98828125 675 m 0
 399.231445312 674.681640625 610.715820312 675.63671875 822.265625 674.51171875 c 2
 823.364257812 674.51171875 l 1
 824.340820312 674.389648438 l 2
 896.495117188 669.262695312 945.591796875 600.978515625 937.255859375 532.421875 c 1
 937.5 536.083984375 l 1
 937.181640625 370.989257812 938.133789062 205.727539062 937.014648438 40.234375 c 2
 937.014648438 39.1337890625 l 1
 936.889648438 38.15625 l 2
 931.763671875 -33.9970703125 863.478515625 -83.0947265625 794.921875 -74.7587890625 c 1
 798.583984375 -75.001953125 l 1
 591.790039062 -74.68359375 384.841796875 -75.6396484375 177.734375 -74.5146484375 c 2
 176.635742188 -74.5146484375 l 1
 175.659179688 -74.3896484375 l 2
 103.504882812 -69.26171875 54.408203125 -0.978515625 62.744140625 67.578125 c 1
 62.5 63.916015625 l 1
 62.818359375 229.010742188 61.865234375 394.272460938 62.98828125 559.765625 c 2
 62.98828125 560.986328125 l 1
 63.1103515625 562.20703125 l 2
 68.4599609375 626.330078125 123.81640625 676.125 187.98828125 675 c 0
187.01171875 612.5 m 2
 157.376953125 613.01953125 128.063476562 586.588867188 125.48828125 557.080078125 c 0
 124.392578125 392.880859375 125.317382812 228.436523438 125 63.7939453125 c 2
 125 61.962890625 l 1
 124.755859375 60.009765625 l 2
 120.732421875 26.919921875 146.973632812 -9.482421875 179.809570312 -12.0126953125 c 0
 385.928710938 -13.119140625 592.224609375 -12.181640625 798.706054688 -12.5 c 2
 800.537109375 -12.5 l 1
 802.491210938 -12.744140625 l 2
 835.581054688 -16.767578125 871.984375 9.4755859375 874.512695312 42.3095703125 c 0
 875.612304688 206.7109375 874.681640625 371.359375 875 536.206054688 c 2
 875 538.037109375 l 1
 875.244140625 539.990234375 l 2
 879.267578125 573.081054688 853.024414062 609.483398438 820.190429688 612.01171875 c 0
 609.45703125 613.12109375 398.588867188 612.1796875 187.5 612.5 c 2
 187.255859375 612.5 l 1
 187.01171875 612.5 l 2
280.029296875 486.279296875 m 0
 288.65234375 486.278320312 296.46875 482.78125 302.124023438 477.124023438 c 2
 447.875976562 331.25 l 1
 447.875976562 331.25 302.115234375 185.375976562 302.124023438 185.375976562 c 1
 296.467773438 179.720703125 288.647460938 176.220703125 280.025390625 176.220703125 c 0
 271.40234375 176.220703125 263.590820312 179.720703125 257.934570312 185.375976562 c 0
 252.279296875 191.032226562 248.779296875 198.852539062 248.779296875 207.474609375 c 0
 248.779296875 216.09765625 252.279296875 223.909179688 257.934570312 229.565429688 c 2
 359.497070312 331.25 l 1
 359.497070312 331.25 257.934570312 432.943359375 257.934570312 432.934570312 c 1
 252.279296875 438.590820312 248.779296875 446.411132812 248.779296875 455.033203125 c 0
 248.779296875 463.65625 252.279296875 471.467773438 257.934570312 477.124023438 c 0
 263.58984375 482.78125 271.40625 486.278320312 280.029296875 486.279296875 c 0
468.75 175 m 2
 656.25 175 l 2
 673.497070312 175 687.5 160.997070312 687.5 143.75 c 0
 687.5 126.502929688 673.497070312 112.5 656.25 112.5 c 2
 468.75 112.5 l 2
 451.502929688 112.5 437.5 126.502929688 437.5 143.75 c 0
 437.5 160.997070312 451.502929688 175 468.75 175 c 2
EndSplineSet
Validated: 37
EndChar

StartChar: account
Encoding: 7 7 6
Width: 1000
Flags: HW
LayerCount: 2
Fore
SplineSet
687.46875 550 m 0
 687.46875 446.447265625 603.5234375 362.5 499.969726562 362.5 c 0
 396.416015625 362.5 312.469726562 446.447265625 312.469726562 550 c 0
 312.469726562 653.552734375 396.416015625 737.5 499.969726562 737.5 c 0
 603.5234375 737.5 687.46875 653.552734375 687.46875 550 c 0
624.969726562 550 m 0
 624.969726562 619.03515625 569.004882812 675 499.969726562 675 c 0
 430.93359375 675 374.969726562 619.03515625 374.969726562 550 c 0
 374.969726562 480.96484375 430.93359375 425 499.969726562 425 c 0
 569.004882812 425 624.969726562 480.96484375 624.969726562 550 c 0
499.98046875 300 m 0
 778.231445312 300 850.018554688 93.537109375 868.543945312 -13 c 0
 874.450195312 -47.005859375 847 -75 812.481445312 -75 c 2
 187.48046875 -75 l 2
 152.962890625 -75 125.5078125 -47.005859375 131.419921875 -13 c 0
 149.94140625 93.537109375 221.728515625 300 499.98046875 300 c 0
733.987304688 143.037109375 m 0
 691.193359375 193.515625 621.333984375 237.5 499.98046875 237.5 c 0
 378.627929688 237.5 308.767578125 193.515625 265.9765625 143.037109375 c 0
 224.45703125 94.056640625 204.454101562 34.0498046875 195.096679688 -12.5 c 1
 804.862304688 -12.5 l 1
 795.505859375 34.0498046875 775.505859375 94.056640625 733.987304688 143.037109375 c 0
EndSplineSet
Validated: 33
EndChar

StartChar: filter
Encoding: 8 8 7
Width: 1000
Flags: H
LayerCount: 2
Fore
SplineSet
156.25 675 m 1
 156.25 675 843.73828125 674.977539062 843.75 675 c 1
 843.750976562 674.977539062 l 2
 861 674.977539062 875.004882812 660.973632812 875.004882812 643.724609375 c 0
 875.004882812 636.348632812 872.444335938 629.56640625 868.1640625 624.21875 c 2
 625 320.263671875 l 1
 625 320.263671875 625.03125 50.0185546875 625 50 c 0
 624.999023438 39.150390625 619.489257812 29.6025390625 611.083984375 23.9990234375 c 2
 611.083984375 23.9990234375 423.552734375 -101.01953125 423.583984375 -101.000976562 c 1
 418.62890625 -104.302734375 412.6484375 -106.24609375 406.252929688 -106.24609375 c 0
 389.005859375 -106.24609375 375.00390625 -92.24609375 375 -75 c 2
 375 320.263671875 l 1
 375 320.263671875 131.82421875 624.241210938 131.8359375 624.21875 c 1
 127.555664062 629.56640625 124.983398438 636.37109375 124.983398438 643.747070312 c 0
 124.983398438 660.99609375 138.987304688 675 156.236328125 675 c 2
 156.25 675 l 1
221.313476562 612.5 m 1
 221.313476562 612.5 430.67578125 350.759765625 430.6640625 350.78125 c 1
 434.934570312 345.436523438 437.5 338.640625 437.5 331.2734375 c 2
 437.5 331.25 l 1
 437.5 -16.650390625 l 1
 562.5 66.7236328125 l 1
 562.5 66.7236328125 562.51171875 331.271484375 562.5 331.25 c 1
 562.51171875 331.295898438 l 2
 562.51171875 338.662109375 565.065429688 345.436523438 569.3359375 350.78125 c 2
 778.686523438 612.5 l 1
 221.313476562 612.5 l 1
EndSplineSet
Validated: 33
EndChar

StartChar: git_branch
Encoding: 9 9 8
Width: 1000
Flags: H
LayerCount: 2
Fore
SplineSet
281.25 706.25 m 0
 367.174804688 706.25 437.5 635.924804688 437.5 550 c 0
 437.5 464.075195312 367.174804688 393.75 281.25 393.75 c 0
 195.325195312 393.75 125 464.075195312 125 550 c 0
 125 635.924804688 195.325195312 706.25 281.25 706.25 c 0
281.25 643.75 m 0
 229.103515625 643.75 187.5 602.146484375 187.5 550 c 0
 187.5 497.853515625 229.103515625 456.25 281.25 456.25 c 0
 333.396484375 456.25 375 497.853515625 375 550 c 0
 375 602.146484375 333.396484375 643.75 281.25 643.75 c 0
625 300 m 1
 687.5 300 l 1
 687.5 206.25 l 2
 687.5 120.32421875 617.173828125 50 531.25 50 c 2
 281.25 50 l 1
 281.25 112.5 l 1
 531.25 112.5 l 2
 583.397460938 112.5 625 154.100585938 625 206.25 c 2
 625 300 l 1
281.25 425 m 0
 298.497070312 425 312.5 410.997070312 312.5 393.75 c 2
 312.5 -106.25 l 2
 312.5 -123.497070312 298.497070312 -137.5 281.25 -137.5 c 0
 264.002929688 -137.5 250 -123.497070312 250 -106.25 c 2
 250 393.75 l 2
 250 410.997070312 264.002929688 425 281.25 425 c 0
656.25 581.25 m 0
 742.174804688 581.25 812.5 510.924804688 812.5 425 c 0
 812.5 339.075195312 742.174804688 268.75 656.25 268.75 c 0
 570.325195312 268.75 500 339.075195312 500 425 c 0
 500 510.924804688 570.325195312 581.25 656.25 581.25 c 0
656.25 518.75 m 0
 604.103515625 518.75 562.5 477.146484375 562.5 425 c 0
 562.5 372.853515625 604.103515625 331.25 656.25 331.25 c 0
 708.396484375 331.25 750 372.853515625 750 425 c 0
 750 477.146484375 708.396484375 518.75 656.25 518.75 c 0
EndSplineSet
Validated: 5
EndChar

StartChar: git_commit
Encoding: 10 10 9
Width: 1000
Flags: H
LayerCount: 2
Fore
SplineSet
500 175 m 0
 569.03515625 175 625 230.96484375 625 300 c 0
 625 369.03515625 569.03515625 425 500 425 c 0
 430.96484375 425 375 369.03515625 375 300 c 0
 375 230.96484375 430.96484375 175 500 175 c 0
684.90625 331.25 m 2
 968.75 331.25 l 2
 986.005859375 331.25 1000 317.258789062 1000 300 c 0
 1000 282.741210938 986.005859375 268.75 968.75 268.75 c 2
 684.90625 268.75 l 2
 670.03125 180.071289062 592.90625 112.5 500 112.5 c 0
 407.09375 112.5 329.969726562 180.071289062 315.092773438 268.75 c 2
 31.25 268.75 l 2
 13.9912109375 268.75 0 282.741210938 0 300 c 0
 0 317.258789062 13.9912109375 331.25 31.25 331.25 c 2
 315.092773438 331.25 l 2
 329.969726562 419.928710938 407.09375 487.5 500 487.5 c 0
 592.90625 487.5 670.03125 419.928710938 684.90625 331.25 c 2
EndSplineSet
Validated: 1
EndChar

StartChar: git_fetch
Encoding: 11 11 10
Width: 1000
Flags: H
LayerCount: 2
Fore
SplineSet
803.349609375 603.346679688 m 0
 815.549804688 591.143554688 815.549804688 571.356445312 803.349609375 559.153320312 c 2
 714.956054688 470.764648438 l 2
 702.755859375 458.560546875 682.96875 458.560546875 670.762695312 470.764648438 c 0
 658.5625 482.96875 658.5625 502.754882812 670.762695312 514.958984375 c 2
 759.150390625 603.346679688 l 2
 771.356445312 615.55078125 791.143554688 615.55078125 803.349609375 603.346679688 c 0
626.568359375 426.5703125 m 0
 638.775390625 414.366210938 638.775390625 394.580078125 626.568359375 382.375976562 c 2
 538.181640625 293.98828125 l 2
 525.978515625 281.784179688 506.19140625 281.784179688 493.98828125 293.98828125 c 0
 481.784179688 306.19140625 481.784179688 325.978515625 493.98828125 338.181640625 c 2
 582.375976562 426.5703125 l 2
 594.580078125 438.774414062 614.366210938 438.774414062 626.568359375 426.5703125 c 0
449.793945312 249.793945312 m 0
 461.997070312 237.58984375 461.997070312 217.802734375 449.793945312 205.599609375 c 2
 361.405273438 117.212890625 l 2
 349.201171875 105.005859375 329.415039062 105.005859375 317.2109375 117.212890625 c 0
 305.0078125 129.412109375 305.0078125 149.200195312 317.2109375 161.40625 c 2
 405.599609375 249.793945312 l 2
 417.802734375 261.997070312 437.58984375 261.997070312 449.793945312 249.793945312 c 0
218.75 487.5 m 0
 236.008789062 487.5 250 473.508789062 250 456.25 c 2
 250 331.25 l 2
 250 313.991210938 236.008789062 300 218.75 300 c 0
 201.491210938 300 187.5 313.991210938 187.5 331.25 c 2
 187.5 456.25 l 2
 187.5 473.508789062 201.491210938 487.5 218.75 487.5 c 0
218.75 237.5 m 0
 236.008789062 237.5 250 223.508789062 250 206.25 c 2
 250 50 l 1
 406.25 50 l 2
 423.508789062 50 437.5 36.005859375 437.5 18.75 c 0
 437.5 1.494140625 423.508789062 -12.5 406.25 -12.5 c 2
 218.75 -12.5 l 2
 201.491210938 -12.5 187.5 1.494140625 187.5 18.75 c 2
 187.5 206.25 l 2
 187.5 223.508789062 201.491210938 237.5 218.75 237.5 c 0
500 18.75 m 0
 500 36.005859375 513.991210938 50 531.25 50 c 2
 656.25 50 l 2
 673.505859375 50 687.5 36.005859375 687.5 18.75 c 0
 687.5 1.494140625 673.505859375 -12.5 656.25 -12.5 c 2
 531.25 -12.5 l 2
 513.991210938 -12.5 500 1.494140625 500 18.75 c 0
EndSplineSet
Validated: 33
EndChar

StartChar: git_compare
Encoding: 12 12 11
Width: 1000
Flags: H
LayerCount: 2
Fore
SplineSet
156.25 487.5 m 2
 531.25 487.5 l 2
 548.5625 487.5 562.5 473.5625 562.5 456.25 c 0
 562.5 438.9375 548.5625 425 531.25 425 c 2
 156.25 425 l 2
 138.9375 425 125 438.9375 125 456.25 c 0
 125 473.5625 138.9375 487.5 156.25 487.5 c 2
156.25 300 m 2
 406.25 300 l 2
 423.5625 300 437.5 286.0625 437.5 268.75 c 0
 437.5 251.4375 423.5625 237.5 406.25 237.5 c 2
 156.25 237.5 l 2
 138.9375 237.5 125 251.4375 125 268.75 c 0
 125 286.0625 138.9375 300 156.25 300 c 2
156.25 675 m 2
 843.75 675 l 2
 861.0625 675 875 661.0625 875 643.75 c 0
 875 626.4375 861.0625 612.5 843.75 612.5 c 2
 156.25 612.5 l 2
 138.9375 612.5 125 626.4375 125 643.75 c 0
 125 661.0625 138.9375 675 156.25 675 c 2
759.155273438 415.844726562 m 2
 764.811523438 421.5 772.631835938 425 781.25390625 425 c 0
 789.876953125 425 797.688476562 421.5 803.344726562 415.844726562 c 0
 809 410.188476562 812.5 402.368164062 812.5 393.74609375 c 0
 812.5 385.123046875 809 377.311523438 803.344726562 371.655273438 c 2
 731.689453125 300 l 1
 968.75 300 l 2
 985.997070312 300 1000 285.997070312 1000 268.75 c 0
 1000 251.502929688 985.997070312 237.5 968.75 237.5 c 2
 731.689453125 237.5 l 1
 731.689453125 237.5 803.344726562 165.8359375 803.344726562 165.844726562 c 1
 809 160.188476562 812.5 152.368164062 812.5 143.74609375 c 0
 812.5 135.123046875 809 127.311523438 803.344726562 121.655273438 c 0
 797.688476562 116 789.868164062 112.5 781.24609375 112.5 c 0
 772.623046875 112.5 764.811523438 116 759.155273438 121.655273438 c 2
 759.155273438 121.655273438 634.155273438 246.6640625 634.155273438 246.655273438 c 1
 628.500976562 252.3125 625.001953125 260.131835938 625.001953125 268.75390625 c 0
 625.001953125 277.376953125 628.500976562 285.1875 634.155273438 290.844726562 c 2
 759.155273438 415.844726562 l 2
509.155273438 165.844726562 m 0
 514.811523438 171.5 522.631835938 175 531.25390625 175 c 0
 539.876953125 175 547.688476562 171.5 553.344726562 165.844726562 c 2
 553.344726562 165.844726562 678.344726562 40.8359375 678.344726562 40.8447265625 c 1
 683.999023438 35.1875 687.498046875 27.3681640625 687.498046875 18.74609375 c 0
 687.498046875 10.123046875 683.999023438 2.3125 678.344726562 -3.3447265625 c 2
 678.344726562 -3.3447265625 553.3359375 -128.344726562 553.344726562 -128.344726562 c 1
 547.688476562 -134 539.868164062 -137.5 531.24609375 -137.5 c 0
 522.623046875 -137.5 514.811523438 -134 509.155273438 -128.344726562 c 0
 503.5 -122.688476562 500 -114.868164062 500 -106.24609375 c 0
 500 -97.623046875 503.5 -89.8115234375 509.155273438 -84.1552734375 c 2
 580.810546875 -12.5 l 1
 343.75 -12.5 l 2
 326.502929688 -12.5 312.5 1.5029296875 312.5 18.75 c 0
 312.5 35.9970703125 326.502929688 50 343.75 50 c 2
 580.810546875 50 l 1
 580.810546875 50 509.155273438 121.6640625 509.155273438 121.655273438 c 1
 503.5 127.311523438 500 135.131835938 500 143.75390625 c 0
 500 152.376953125 503.5 160.188476562 509.155273438 165.844726562 c 0
EndSplineSet
Validated: 33
EndChar

StartChar: git_merge
Encoding: 13 13 12
Width: 1000
Flags: H
LayerCount: 2
Fore
SplineSet
500 713.940429688 m 1
 500 713.940429688 647.094726562 566.836914062 647.094726562 566.845703125 c 1
 652.75 561.189453125 656.25 553.369140625 656.25 544.747070312 c 0
 656.25 536.124023438 652.75 528.3125 647.094726562 522.65625 c 0
 641.438476562 517.000976562 633.618164062 513.500976562 624.99609375 513.500976562 c 0
 616.373046875 513.500976562 608.561523438 517.000976562 602.905273438 522.65625 c 2
 500 625.561523438 l 1
 500 625.561523438 397.0859375 522.65625 397.094726562 522.65625 c 1
 391.438476562 517.000976562 383.618164062 513.500976562 374.99609375 513.500976562 c 0
 366.373046875 513.500976562 358.561523438 517.000976562 352.905273438 522.65625 c 0
 347.25 528.3125 343.75 536.1328125 343.75 544.754882812 c 0
 343.75 553.377929688 347.25 561.189453125 352.905273438 566.845703125 c 2
 500 713.940429688 l 1
500 669.750976562 m 0
 517.247070312 669.750976562 531.25 655.748046875 531.25 638.500976562 c 2
 531.25 414.74609375 l 2
 531.25 369.151367188 511.301757812 325.766601562 476.684570312 296.09375 c 2
 345.21484375 183.422851562 l 2
 324.420898438 165.599609375 312.5 139.638671875 312.5 112.255859375 c 2
 312.5 -80.2490234375 l 2
 312.5 -97.49609375 298.497070312 -111.499023438 281.25 -111.499023438 c 0
 264.002929688 -111.499023438 250 -97.49609375 250 -80.2490234375 c 2
 250 112.255859375 l 2
 250 157.84765625 269.948242188 201.235351562 304.565429688 230.908203125 c 2
 436.03515625 343.579101562 l 2
 456.829101562 361.403320312 468.75 387.359375 468.75 414.74609375 c 2
 468.75 638.500976562 l 2
 468.75 655.748046875 482.752929688 669.750976562 500 669.750976562 c 0
500 669.750976562 m 0
 517.247070312 669.750976562 531.25 655.748046875 531.25 638.500976562 c 2
 531.25 414.74609375 l 2
 531.25 387.359375 543.170898438 361.403320312 563.96484375 343.579101562 c 2
 695.434570312 230.908203125 l 2
 730.052734375 201.235351562 750 157.846679688 750 112.255859375 c 2
 750 -80.2490234375 l 2
 750 -97.49609375 735.997070312 -111.499023438 718.75 -111.499023438 c 0
 701.502929688 -111.499023438 687.5 -97.49609375 687.5 -80.2490234375 c 2
 687.5 112.255859375 l 2
 687.5 139.639648438 675.579101562 165.599609375 654.78515625 183.422851562 c 2
 523.315429688 296.09375 l 2
 488.698242188 325.766601562 468.75 369.151367188 468.75 414.74609375 c 2
 468.75 638.500976562 l 2
 468.75 655.748046875 482.752929688 669.750976562 500 669.750976562 c 0
EndSplineSet
Validated: 37
EndChar

StartChar: git_pull_request
Encoding: 14 14 13
Width: 1000
Flags: H
LayerCount: 2
Fore
SplineSet
234.375 206.25 m 0
 320.299804688 206.25 390.625 135.924804688 390.625 50 c 0
 390.625 -35.9248046875 320.299804688 -106.25 234.375 -106.25 c 0
 148.450195312 -106.25 78.125 -35.9248046875 78.125 50 c 0
 78.125 135.924804688 148.450195312 206.25 234.375 206.25 c 0
234.375 143.75 m 0
 182.228515625 143.75 140.625 102.146484375 140.625 50 c 0
 140.625 -2.146484375 182.228515625 -43.75 234.375 -43.75 c 0
 286.521484375 -43.75 328.125 -2.146484375 328.125 50 c 0
 328.125 102.146484375 286.521484375 143.75 234.375 143.75 c 0
234.375 706.25 m 0
 320.299804688 706.25 390.625 635.924804688 390.625 550 c 0
 390.625 464.075195312 320.299804688 393.75 234.375 393.75 c 0
 148.450195312 393.75 78.125 464.075195312 78.125 550 c 0
 78.125 635.924804688 148.450195312 706.25 234.375 706.25 c 0
234.375 643.75 m 0
 182.228515625 643.75 140.625 602.146484375 140.625 550 c 0
 140.625 497.853515625 182.228515625 456.25 234.375 456.25 c 0
 286.521484375 456.25 328.125 497.853515625 328.125 550 c 0
 328.125 602.146484375 286.521484375 643.75 234.375 643.75 c 0
203.125 425 m 1
 265.625 425 l 1
 265.625 175 l 1
 203.125 175 l 1
 203.125 425 l 1
765.625 206.25 m 0
 851.549804688 206.25 921.875 135.924804688 921.875 50 c 0
 921.875 -35.9248046875 851.549804688 -106.25 765.625 -106.25 c 0
 679.700195312 -106.25 609.375 -35.9248046875 609.375 50 c 0
 609.375 135.924804688 679.700195312 206.25 765.625 206.25 c 0
765.625 143.75 m 0
 713.478515625 143.75 671.875 102.146484375 671.875 50 c 0
 671.875 -2.146484375 713.478515625 -43.75 765.625 -43.75 c 0
 817.771484375 -43.75 859.375 -2.146484375 859.375 50 c 0
 859.375 102.146484375 817.771484375 143.75 765.625 143.75 c 0
500 581.25 m 1
 665.649414062 581.25 l 2
 737.768554688 581.25 796.875 522.140625 796.875 450.024414062 c 2
 796.875 175 l 1
 734.375 175 l 1
 734.375 450.024414062 l 2
 734.375 488.365234375 703.993164062 518.75 665.649414062 518.75 c 2
 500 518.75 l 1
 500 581.25 l 1
587.280273438 697.094726562 m 2
 592.936523438 702.75 600.756835938 706.25 609.37890625 706.25 c 0
 618.001953125 706.25 625.813476562 702.75 631.469726562 697.094726562 c 0
 637.125 691.438476562 640.625 683.618164062 640.625 674.99609375 c 0
 640.625 666.373046875 637.125 658.561523438 631.469726562 652.905273438 c 2
 528.564453125 550 l 1
 528.564453125 550 631.469726562 447.0859375 631.469726562 447.094726562 c 1
 637.125 441.438476562 640.625 433.618164062 640.625 424.99609375 c 0
 640.625 416.373046875 637.125 408.561523438 631.469726562 402.905273438 c 0
 625.813476562 397.25 617.993164062 393.75 609.37109375 393.75 c 0
 600.748046875 393.75 592.936523438 397.25 587.280273438 402.905273438 c 2
 440.185546875 550 l 1
 587.280273438 697.094726562 l 2
EndSplineSet
Validated: 5
EndChar

StartChar: remote_explorer
Encoding: 15 15 14
Width: 1000
Flags: H
LayerCount: 2
Fore
SplineSet
687.5 143.75 m 0
 687.5 161.005859375 701.494140625 175 718.75 175 c 2
 968.75 175 l 2
 986.005859375 175 1000 161.005859375 1000 143.75 c 2
 1000 -106.25 l 2
 1000 -123.505859375 986.005859375 -137.5 968.75 -137.5 c 0
 951.494140625 -137.5 937.5 -123.505859375 937.5 -106.25 c 2
 937.5 68.306640625 l 1
 678.349609375 -190.849609375 l 2
 666.143554688 -203.049804688 646.356445312 -203.049804688 634.150390625 -190.849609375 c 0
 621.94921875 -178.643554688 621.94921875 -158.856445312 634.150390625 -146.650390625 c 2
 893.306640625 112.5 l 1
 718.75 112.5 l 2
 701.494140625 112.5 687.5 126.494140625 687.5 143.75 c 0
250 487.5 m 2
 312.5 487.5 l 2
 329.747070312 487.5 343.75 473.497070312 343.75 456.25 c 0
 343.75 439.002929688 329.747070312 425 312.5 425 c 2
 250 425 l 2
 232.752929688 425 218.75 439.002929688 218.75 456.25 c 0
 218.75 473.497070312 232.752929688 487.5 250 487.5 c 2
437.5 487.5 m 2
 500 487.5 l 2
 517.247070312 487.5 531.25 473.497070312 531.25 456.25 c 0
 531.25 439.002929688 517.247070312 425 500 425 c 2
 437.5 425 l 2
 420.252929688 425 406.25 439.002929688 406.25 456.25 c 0
 406.25 473.497070312 420.252929688 487.5 437.5 487.5 c 2
812.5 612.5 m 2
 187.5 612.5 l 2
 152.982421875 612.5 125 584.517578125 125 550 c 2
 125 50 l 2
 125 15.4814453125 152.982421875 -12.5 187.5 -12.5 c 2
 679.931640625 -12.5 l 1
 617.4296875 -75 l 1
 187.5 -75 l 2
 118.46484375 -75 62.5 -19.037109375 62.5 50 c 2
 62.5 550 l 2
 62.5 619.03515625 118.46484375 675 187.5 675 c 2
 812.5 675 l 2
 881.537109375 675 937.5 619.03515625 937.5 550 c 2
 937.5 237.5 l 1
 875 237.5 l 1
 875 550 l 2
 875 584.517578125 847.018554688 612.5 812.5 612.5 c 2
EndSplineSet
Validated: 33
EndChar

StartChar: split_horizontal
Encoding: 16 16 15
Width: 1000
Flags: H
LayerCount: 2
Fore
SplineSet
531.25 612.5 m 1
 531.25 -12.5 l 1
 750 -12.5 l 2
 784.518554688 -12.5 812.5 15.4814453125 812.5 50 c 2
 812.5 550 l 2
 812.5 584.517578125 784.518554688 612.5 750 612.5 c 2
 531.25 612.5 l 1
468.75 675 m 1
 531.25 675 l 1
 750 675 l 2
 819.037109375 675 875 619.03515625 875 550 c 2
 875 50 l 2
 875 -19.037109375 819.037109375 -75 750 -75 c 2
 531.25 -75 l 1
 468.75 -75 l 1
 250 -75 l 2
 180.96484375 -75 125 -19.037109375 125 50 c 2
 125 550 l 2
 125 619.03515625 180.96484375 675 250 675 c 2
 468.75 675 l 1
468.75 -12.5 m 1
 468.75 612.5 l 1
 250 612.5 l 2
 215.482421875 612.5 187.5 584.517578125 187.5 550 c 2
 187.5 50 l 2
 187.5 15.4814453125 215.482421875 -12.5 250 -12.5 c 2
 468.75 -12.5 l 1
EndSplineSet
Validated: 1
EndChar

StartChar: split_vertical
Encoding: 17 17 16
Width: 1000
Flags: H
LayerCount: 2
Fore
SplineSet
250 612.5 m 2
 215.482421875 612.5 187.5 584.517578125 187.5 550 c 2
 187.5 331.25 l 1
 812.5 331.25 l 1
 812.5 550 l 2
 812.5 584.517578125 784.518554688 612.5 750 612.5 c 2
 250 612.5 l 2
125 268.75 m 1
 125 331.25 l 1
 125 550 l 2
 125 619.03515625 180.96484375 675 250 675 c 2
 750 675 l 2
 819.037109375 675 875 619.03515625 875 550 c 2
 875 331.25 l 1
 875 268.75 l 1
 875 50 l 2
 875 -19.037109375 819.037109375 -75 750 -75 c 2
 250 -75 l 2
 180.96484375 -75 125 -19.037109375 125 50 c 2
 125 268.75 l 1
812.5 268.75 m 1
 187.5 268.75 l 1
 187.5 50 l 2
 187.5 15.4814453125 215.482421875 -12.5 250 -12.5 c 2
 750 -12.5 l 2
 784.518554688 -12.5 812.5 15.4814453125 812.5 50 c 2
 812.5 268.75 l 1
EndSplineSet
Validated: 1
EndChar

StartChar: uni0012
Encoding: 18 18 17
Width: 1000
Flags: H
LayerCount: 2
Fore
SplineSet
281.25 706.25 m 0
 367.174804688 706.25 437.5 635.924804688 437.5 550 c 0
 437.5 464.075195312 367.174804688 393.75 281.25 393.75 c 0
 195.325195312 393.75 125 464.075195312 125 550 c 0
 125 635.924804688 195.325195312 706.25 281.25 706.25 c 0
281.25 643.75 m 0
 229.103515625 643.75 187.5 602.146484375 187.5 550 c 0
 187.5 497.853515625 229.103515625 456.25 281.25 456.25 c 0
 333.396484375 456.25 375 497.853515625 375 550 c 0
 375 602.146484375 333.396484375 643.75 281.25 643.75 c 0
625 300 m 1
 687.5 300 l 1
 687.5 206.25 l 2
 687.5 120.32421875 617.173828125 50 531.25 50 c 2
 281.25 50 l 1
 281.25 112.5 l 1
 531.25 112.5 l 2
 583.397460938 112.5 625 154.100585938 625 206.25 c 2
 625 300 l 1
281.25 425 m 0
 298.497070312 425 312.5 410.997070312 312.5 393.75 c 2
 312.5 -106.25 l 2
 312.5 -123.497070312 298.497070312 -137.5 281.25 -137.5 c 0
 264.002929688 -137.5 250 -123.497070312 250 -106.25 c 2
 250 393.75 l 2
 250 410.997070312 264.002929688 425 281.25 425 c 0
656.25 581.25 m 0
 742.174804688 581.25 812.5 510.924804688 812.5 425 c 0
 812.5 339.075195312 742.174804688 268.75 656.25 268.75 c 0
 570.325195312 268.75 500 339.075195312 500 425 c 0
 500 510.924804688 570.325195312 581.25 656.25 581.25 c 0
656.25 518.75 m 0
 604.103515625 518.75 562.5 477.146484375 562.5 425 c 0
 562.5 372.853515625 604.103515625 331.25 656.25 331.25 c 0
 708.396484375 331.25 750 372.853515625 750 425 c 0
 750 477.146484375 708.396484375 518.75 656.25 518.75 c 0
EndSplineSet
Validated: 5
EndChar

StartChar: uni0013
Encoding: 19 19 18
Width: 1000
Flags: H
LayerCount: 2
Fore
SplineSet
500 175 m 0
 569.03515625 175 625 230.96484375 625 300 c 0
 625 369.03515625 569.03515625 425 500 425 c 0
 430.96484375 425 375 369.03515625 375 300 c 0
 375 230.96484375 430.96484375 175 500 175 c 0
684.90625 331.25 m 2
 968.75 331.25 l 2
 986.005859375 331.25 1000 317.258789062 1000 300 c 0
 1000 282.741210938 986.005859375 268.75 968.75 268.75 c 2
 684.90625 268.75 l 2
 670.03125 180.071289062 592.90625 112.5 500 112.5 c 0
 407.09375 112.5 329.969726562 180.071289062 315.092773438 268.75 c 2
 31.25 268.75 l 2
 13.9912109375 268.75 0 282.741210938 0 300 c 0
 0 317.258789062 13.9912109375 331.25 31.25 331.25 c 2
 315.092773438 331.25 l 2
 329.969726562 419.928710938 407.09375 487.5 500 487.5 c 0
 592.90625 487.5 670.03125 419.928710938 684.90625 331.25 c 2
EndSplineSet
Validated: 1
EndChar

StartChar: uni0014
Encoding: 20 20 19
Width: 1000
Flags: H
LayerCount: 2
Fore
SplineSet
803.349609375 603.346679688 m 0
 815.549804688 591.143554688 815.549804688 571.356445312 803.349609375 559.153320312 c 2
 714.956054688 470.764648438 l 2
 702.755859375 458.560546875 682.96875 458.560546875 670.762695312 470.764648438 c 0
 658.5625 482.96875 658.5625 502.754882812 670.762695312 514.958984375 c 2
 759.150390625 603.346679688 l 2
 771.356445312 615.55078125 791.143554688 615.55078125 803.349609375 603.346679688 c 0
626.568359375 426.5703125 m 0
 638.775390625 414.366210938 638.775390625 394.580078125 626.568359375 382.375976562 c 2
 538.181640625 293.98828125 l 2
 525.978515625 281.784179688 506.19140625 281.784179688 493.98828125 293.98828125 c 0
 481.784179688 306.19140625 481.784179688 325.978515625 493.98828125 338.181640625 c 2
 582.375976562 426.5703125 l 2
 594.580078125 438.774414062 614.366210938 438.774414062 626.568359375 426.5703125 c 0
449.793945312 249.793945312 m 0
 461.997070312 237.58984375 461.997070312 217.802734375 449.793945312 205.599609375 c 2
 361.405273438 117.212890625 l 2
 349.201171875 105.005859375 329.415039062 105.005859375 317.2109375 117.212890625 c 0
 305.0078125 129.412109375 305.0078125 149.200195312 317.2109375 161.40625 c 2
 405.599609375 249.793945312 l 2
 417.802734375 261.997070312 437.58984375 261.997070312 449.793945312 249.793945312 c 0
218.75 487.5 m 0
 236.008789062 487.5 250 473.508789062 250 456.25 c 2
 250 331.25 l 2
 250 313.991210938 236.008789062 300 218.75 300 c 0
 201.491210938 300 187.5 313.991210938 187.5 331.25 c 2
 187.5 456.25 l 2
 187.5 473.508789062 201.491210938 487.5 218.75 487.5 c 0
218.75 237.5 m 0
 236.008789062 237.5 250 223.508789062 250 206.25 c 2
 250 50 l 1
 406.25 50 l 2
 423.508789062 50 437.5 36.005859375 437.5 18.75 c 0
 437.5 1.494140625 423.508789062 -12.5 406.25 -12.5 c 2
 218.75 -12.5 l 2
 201.491210938 -12.5 187.5 1.494140625 187.5 18.75 c 2
 187.5 206.25 l 2
 187.5 223.508789062 201.491210938 237.5 218.75 237.5 c 0
500 18.75 m 0
 500 36.005859375 513.991210938 50 531.25 50 c 2
 656.25 50 l 2
 673.505859375 50 687.5 36.005859375 687.5 18.75 c 0
 687.5 1.494140625 673.505859375 -12.5 656.25 -12.5 c 2
 531.25 -12.5 l 2
 513.991210938 -12.5 500 1.494140625 500 18.75 c 0
EndSplineSet
EndChar

StartChar: uni0015
Encoding: 21 21 20
Width: 1000
Flags: H
LayerCount: 2
Fore
SplineSet
156.25 487.5 m 2
 531.25 487.5 l 2
 548.5625 487.5 562.5 473.5625 562.5 456.25 c 0
 562.5 438.9375 548.5625 425 531.25 425 c 2
 156.25 425 l 2
 138.9375 425 125 438.9375 125 456.25 c 0
 125 473.5625 138.9375 487.5 156.25 487.5 c 2
156.25 300 m 2
 406.25 300 l 2
 423.5625 300 437.5 286.0625 437.5 268.75 c 0
 437.5 251.4375 423.5625 237.5 406.25 237.5 c 2
 156.25 237.5 l 2
 138.9375 237.5 125 251.4375 125 268.75 c 0
 125 286.0625 138.9375 300 156.25 300 c 2
156.25 675 m 2
 843.75 675 l 2
 861.0625 675 875 661.0625 875 643.75 c 0
 875 626.4375 861.0625 612.5 843.75 612.5 c 2
 156.25 612.5 l 2
 138.9375 612.5 125 626.4375 125 643.75 c 0
 125 661.0625 138.9375 675 156.25 675 c 2
759.155273438 415.844726562 m 2
 764.811523438 421.5 772.631835938 425 781.25390625 425 c 0
 789.876953125 425 797.688476562 421.5 803.344726562 415.844726562 c 0
 809 410.188476562 812.5 402.368164062 812.5 393.74609375 c 0
 812.5 385.123046875 809 377.311523438 803.344726562 371.655273438 c 2
 731.689453125 300 l 1
 968.75 300 l 2
 985.997070312 300 1000 285.997070312 1000 268.75 c 0
 1000 251.502929688 985.997070312 237.5 968.75 237.5 c 2
 731.689453125 237.5 l 1
 731.689453125 237.5 803.344726562 165.8359375 803.344726562 165.844726562 c 1
 809 160.188476562 812.5 152.368164062 812.5 143.74609375 c 0
 812.5 135.123046875 809 127.311523438 803.344726562 121.655273438 c 0
 797.688476562 116 789.868164062 112.5 781.24609375 112.5 c 0
 772.623046875 112.5 764.811523438 116 759.155273438 121.655273438 c 2
 759.155273438 121.655273438 634.155273438 246.6640625 634.155273438 246.655273438 c 1
 628.500976562 252.3125 625.001953125 260.131835938 625.001953125 268.75390625 c 0
 625.001953125 277.376953125 628.500976562 285.1875 634.155273438 290.844726562 c 2
 759.155273438 415.844726562 l 2
509.155273438 165.844726562 m 0
 514.811523438 171.5 522.631835938 175 531.25390625 175 c 0
 539.876953125 175 547.688476562 171.5 553.344726562 165.844726562 c 2
 553.344726562 165.844726562 678.344726562 40.8359375 678.344726562 40.8447265625 c 1
 683.999023438 35.1875 687.498046875 27.3681640625 687.498046875 18.74609375 c 0
 687.498046875 10.123046875 683.999023438 2.3125 678.344726562 -3.3447265625 c 2
 678.344726562 -3.3447265625 553.3359375 -128.344726562 553.344726562 -128.344726562 c 1
 547.688476562 -134 539.868164062 -137.5 531.24609375 -137.5 c 0
 522.623046875 -137.5 514.811523438 -134 509.155273438 -128.344726562 c 0
 503.5 -122.688476562 500 -114.868164062 500 -106.24609375 c 0
 500 -97.623046875 503.5 -89.8115234375 509.155273438 -84.1552734375 c 2
 580.810546875 -12.5 l 1
 343.75 -12.5 l 2
 326.502929688 -12.5 312.5 1.5029296875 312.5 18.75 c 0
 312.5 35.9970703125 326.502929688 50 343.75 50 c 2
 580.810546875 50 l 1
 580.810546875 50 509.155273438 121.6640625 509.155273438 121.655273438 c 1
 503.5 127.311523438 500 135.131835938 500 143.75390625 c 0
 500 152.376953125 503.5 160.188476562 509.155273438 165.844726562 c 0
EndSplineSet
EndChar

StartChar: uni0016
Encoding: 22 22 21
Width: 1000
Flags: H
LayerCount: 2
Fore
SplineSet
500 713.940429688 m 1
 500 713.940429688 647.094726562 566.836914062 647.094726562 566.845703125 c 1
 652.75 561.189453125 656.25 553.369140625 656.25 544.747070312 c 0
 656.25 536.124023438 652.75 528.3125 647.094726562 522.65625 c 0
 641.438476562 517.000976562 633.618164062 513.500976562 624.99609375 513.500976562 c 0
 616.373046875 513.500976562 608.561523438 517.000976562 602.905273438 522.65625 c 2
 500 625.561523438 l 1
 500 625.561523438 397.0859375 522.65625 397.094726562 522.65625 c 1
 391.438476562 517.000976562 383.618164062 513.500976562 374.99609375 513.500976562 c 0
 366.373046875 513.500976562 358.561523438 517.000976562 352.905273438 522.65625 c 0
 347.25 528.3125 343.75 536.1328125 343.75 544.754882812 c 0
 343.75 553.377929688 347.25 561.189453125 352.905273438 566.845703125 c 2
 500 713.940429688 l 1
500 669.750976562 m 0
 517.247070312 669.750976562 531.25 655.748046875 531.25 638.500976562 c 2
 531.25 414.74609375 l 2
 531.25 369.151367188 511.301757812 325.766601562 476.684570312 296.09375 c 2
 345.21484375 183.422851562 l 2
 324.420898438 165.599609375 312.5 139.638671875 312.5 112.255859375 c 2
 312.5 -80.2490234375 l 2
 312.5 -97.49609375 298.497070312 -111.499023438 281.25 -111.499023438 c 0
 264.002929688 -111.499023438 250 -97.49609375 250 -80.2490234375 c 2
 250 112.255859375 l 2
 250 157.84765625 269.948242188 201.235351562 304.565429688 230.908203125 c 2
 436.03515625 343.579101562 l 2
 456.829101562 361.403320312 468.75 387.359375 468.75 414.74609375 c 2
 468.75 638.500976562 l 2
 468.75 655.748046875 482.752929688 669.750976562 500 669.750976562 c 0
500 669.750976562 m 0
 517.247070312 669.750976562 531.25 655.748046875 531.25 638.500976562 c 2
 531.25 414.74609375 l 2
 531.25 387.359375 543.170898438 361.403320312 563.96484375 343.579101562 c 2
 695.434570312 230.908203125 l 2
 730.052734375 201.235351562 750 157.846679688 750 112.255859375 c 2
 750 -80.2490234375 l 2
 750 -97.49609375 735.997070312 -111.499023438 718.75 -111.499023438 c 0
 701.502929688 -111.499023438 687.5 -97.49609375 687.5 -80.2490234375 c 2
 687.5 112.255859375 l 2
 687.5 139.639648438 675.579101562 165.599609375 654.78515625 183.422851562 c 2
 523.315429688 296.09375 l 2
 488.698242188 325.766601562 468.75 369.151367188 468.75 414.74609375 c 2
 468.75 638.500976562 l 2
 468.75 655.748046875 482.752929688 669.750976562 500 669.750976562 c 0
EndSplineSet
EndChar

StartChar: uni0017
Encoding: 23 23 22
Width: 1000
Flags: H
LayerCount: 2
Fore
SplineSet
296.875 706.005859375 m 2
 859.375 381.176757812 l 2
 920.57421875 345.844726562 920.57421875 254.155273438 859.375 218.823242188 c 2
 296.875 -106.005859375 l 2
 235.677734375 -141.337890625 156.25 -95.3720703125 156.25 -24.70703125 c 2
 156.25 624.70703125 l 2
 156.25 695.372070312 235.676757812 741.338867188 296.875 706.005859375 c 2
233.88671875 652.661132812 m 0
 224.934570312 647.493164062 218.75 637.487304688 218.75 624.70703125 c 2
 218.75 -24.70703125 l 2
 218.75 -50.2666015625 243.48828125 -64.5869140625 265.625 -51.806640625 c 2
 828.125 272.900390625 l 2
 850.262695312 285.680664062 850.263671875 314.318359375 828.125 327.099609375 c 2
 265.625 651.806640625 l 2
 254.557617188 658.196289062 242.838867188 657.829101562 233.88671875 652.661132812 c 0
EndSplineSet
EndChar

StartChar: new_file
Encoding: 24 24 23
Width: 1000
Flags: H
LayerCount: 2
Fore
SplineSet
781.25 237.5 m 0
 798.505859375 237.5 812.5 223.508789062 812.5 206.25 c 2
 812.5 50 l 1
 968.75 50 l 2
 986.005859375 50 1000 36.005859375 1000 18.75 c 0
 1000 1.494140625 986.005859375 -12.5 968.75 -12.5 c 2
 812.5 -12.5 l 1
 812.5 -168.75 l 2
 812.5 -186.005859375 798.505859375 -200 781.25 -200 c 0
 763.994140625 -200 750 -186.005859375 750 -168.75 c 2
 750 -12.5 l 1
 593.75 -12.5 l 2
 576.491210938 -12.5 562.5 1.494140625 562.5 18.75 c 0
 562.5 36.005859375 576.491210938 50 593.75 50 c 2
 750 50 l 1
 750 206.25 l 2
 750 223.508789062 763.994140625 237.5 781.25 237.5 c 0
187.5 -12.5 m 2
 187.5 435.72265625 l 2
 187.5 468.875976562 200.668945312 500.668945312 224.112304688 524.112304688 c 2
 400.887695312 700.887695312 l 2
 424.331054688 724.331054688 456.124023438 737.5 489.27734375 737.5 c 2
 687.5 737.5 l 2
 756.537109375 737.5 812.5 681.53515625 812.5 612.5 c 2
 812.5 300 l 1
 750 300 l 1
 750 612.5 l 2
 750 647.017578125 722.018554688 675 687.5 675 c 2
 500 675 l 1
 500 550 l 2
 500 480.96484375 444.03515625 425 375 425 c 2
 250 425 l 1
 250 -12.5 l 2
 250 -47.0185546875 277.982421875 -75 312.5 -75 c 2
 500 -75 l 1
 500 -137.5 l 1
 312.5 -137.5 l 2
 243.46484375 -137.5 187.5 -81.537109375 187.5 -12.5 c 2
275.887695312 487.5 m 1
 375 487.5 l 2
 409.517578125 487.5 437.5 515.482421875 437.5 550 c 2
 437.5 649.112304688 l 1
 275.887695312 487.5 l 1
EndSplineSet
EndChar

StartChar: new_folder
Encoding: 25 25 24
Width: 1000
Flags: H
LayerCount: 2
Fore
SplineSet
781.25 237.5 m 0
 798.505859375 237.5 812.5 223.508789062 812.5 206.25 c 2
 812.5 50 l 1
 968.75 50 l 2
 986.005859375 50 1000 36.005859375 1000 18.75 c 0
 1000 1.494140625 986.005859375 -12.5 968.75 -12.5 c 2
 812.5 -12.5 l 1
 812.5 -168.75 l 2
 812.5 -186.005859375 798.505859375 -200 781.25 -200 c 0
 763.994140625 -200 750 -186.005859375 750 -168.75 c 2
 750 -12.5 l 1
 593.75 -12.5 l 2
 576.491210938 -12.5 562.5 1.494140625 562.5 18.75 c 0
 562.5 36.005859375 576.491210938 50 593.75 50 c 2
 750 50 l 1
 750 206.25 l 2
 750 223.508789062 763.994140625 237.5 781.25 237.5 c 0
382.606445312 612.5 m 1
 164.583007812 612.5 l 2
 150.30078125 612.5 125 596.349609375 125 558.333007812 c 2
 125 41.6689453125 l 2
 125 3.650390625 150.30078125 -12.5 164.583007812 -12.5 c 2
 500 -12.5 l 1
 500 -75 l 1
 164.583007812 -75 l 2
 108.204101562 -75 62.5 -22.7685546875 62.5 41.6689453125 c 2
 62.5 558.333007812 l 2
 62.5 622.766601562 108.204101562 675 164.583007812 675 c 2
 382.606445312 675 l 2
 399.6328125 675 415.922851562 668.052734375 427.709960938 655.765625 c 2
 529.166992188 550 l 1
 812.5 550 l 2
 881.537109375 550 937.5 494.03515625 937.5 425 c 2
 937.5 300 l 1
 875 300 l 1
 875 425 l 2
 875 459.518554688 847.018554688 487.5 812.5 487.5 c 2
 502.513671875 487.5 l 1
 382.606445312 612.5 l 1
EndSplineSet
EndChar
